<svg width="51" height="50" viewBox="0 0 51 50" fill="none" xmlns="http://www.w3.org/2000/svg">
<circle cx="26" cy="25" r="25" fill="#D9D9D9"/>
<path d="M17.1351 36.216C16.0151 36.216 15.0791 35.976 14.3271 35.496C13.5911 35.016 13.0311 34.352 12.6471 33.504C12.2631 32.656 12.0391 31.672 11.9751 30.552L14.3751 29.904C14.4231 30.592 14.5271 31.256 14.6871 31.896C14.8631 32.536 15.1431 33.064 15.5271 33.48C15.9111 33.88 16.4471 34.08 17.1351 34.08C17.8391 34.08 18.3671 33.888 18.7191 33.504C19.0871 33.104 19.2711 32.536 19.2711 31.8C19.2711 30.92 19.0711 30.216 18.6711 29.688C18.2711 29.144 17.7671 28.6 17.1591 28.056L13.8951 25.176C13.2551 24.616 12.7831 24.008 12.4791 23.352C12.1751 22.68 12.0231 21.856 12.0231 20.88C12.0231 19.456 12.4311 18.352 13.2471 17.568C14.0631 16.784 15.1751 16.392 16.5831 16.392C17.3511 16.392 18.0231 16.496 18.5991 16.704C19.1911 16.896 19.6791 17.2 20.0631 17.616C20.4631 18.032 20.7751 18.56 20.9991 19.2C21.2391 19.824 21.3991 20.56 21.4791 21.408L19.1751 22.032C19.1271 21.392 19.0311 20.808 18.8871 20.28C18.7431 19.736 18.4871 19.304 18.1191 18.984C17.7671 18.648 17.2551 18.48 16.5831 18.48C15.9111 18.48 15.3831 18.664 14.9991 19.032C14.6311 19.384 14.4471 19.912 14.4471 20.616C14.4471 21.208 14.5431 21.696 14.7351 22.08C14.9431 22.464 15.2711 22.856 15.7191 23.256L19.0071 26.136C19.7431 26.776 20.3911 27.544 20.9511 28.44C21.5111 29.32 21.7911 30.368 21.7911 31.584C21.7911 32.544 21.5911 33.376 21.1911 34.08C20.7911 34.768 20.2391 35.296 19.5351 35.664C18.8471 36.032 18.0471 36.216 17.1351 36.216ZM27.4708 36.192C26.3348 36.192 25.4708 35.968 24.8788 35.52C24.3028 35.056 23.9108 34.408 23.7028 33.576C23.5108 32.744 23.4148 31.776 23.4148 30.672V27.48C23.4148 26.312 23.5188 25.32 23.7268 24.504C23.9348 23.672 24.3268 23.04 24.9028 22.608C25.4948 22.16 26.3508 21.936 27.4708 21.936C28.4788 21.936 29.2548 22.104 29.7988 22.44C30.3588 22.76 30.7428 23.248 30.9508 23.904C31.1588 24.544 31.2628 25.344 31.2628 26.304V27.12H28.9348V26.28C28.9348 25.672 28.8948 25.192 28.8148 24.84C28.7348 24.488 28.5908 24.232 28.3828 24.072C28.1748 23.912 27.8788 23.832 27.4948 23.832C27.0788 23.832 26.7588 23.928 26.5348 24.12C26.3108 24.312 26.1588 24.64 26.0788 25.104C26.0148 25.552 25.9828 26.168 25.9828 26.952V31.32C25.9828 32.504 26.0948 33.296 26.3188 33.696C26.5428 34.096 26.9428 34.296 27.5188 34.296C27.9508 34.296 28.2628 34.2 28.4548 34.008C28.6628 33.8 28.7908 33.512 28.8388 33.144C28.9028 32.776 28.9348 32.36 28.9348 31.896V30.768H31.2628V31.728C31.2628 32.656 31.1508 33.456 30.9268 34.128C30.7188 34.8 30.3348 35.312 29.7748 35.664C29.2308 36.016 28.4628 36.192 27.4708 36.192ZM33.618 36V22.128H36.186V24.096C36.698 23.248 37.21 22.68 37.722 22.392C38.234 22.104 38.746 21.96 39.258 21.96C39.322 21.96 39.378 21.96 39.426 21.96C39.49 21.96 39.57 21.968 39.666 21.984V24.816C39.474 24.736 39.25 24.672 38.994 24.624C38.754 24.56 38.506 24.528 38.25 24.528C37.85 24.528 37.482 24.624 37.146 24.816C36.826 24.992 36.506 25.344 36.186 25.872V36H33.618Z" fill="#F6A200"/>
</svg>
