<svg width="51" height="50" viewBox="0 0 51 50" fill="none" xmlns="http://www.w3.org/2000/svg">
<circle cx="26" cy="25" r="25" fill="#D9D9D9"/>
<path d="M15.0237 36V16.56H19.8477C21.0157 16.56 21.9437 16.776 22.6317 17.208C23.3357 17.624 23.8477 18.232 24.1677 19.032C24.4877 19.832 24.6477 20.8 24.6477 21.936C24.6477 22.96 24.4637 23.848 24.0957 24.6C23.7437 25.352 23.2157 25.936 22.5117 26.352C21.8077 26.752 20.9277 26.952 19.8717 26.952H17.7357V36H15.0237ZM17.7357 25.008H18.9837C19.7677 25.008 20.3837 24.92 20.8317 24.744C21.2797 24.568 21.5997 24.264 21.7917 23.832C21.9837 23.384 22.0797 22.76 22.0797 21.96C22.0797 21.032 22.0077 20.32 21.8637 19.824C21.7357 19.328 21.4557 18.984 21.0237 18.792C20.5917 18.6 19.9197 18.504 19.0077 18.504H17.7357V25.008ZM26.555 36V16.56H30.467C31.763 16.56 32.835 16.736 33.683 17.088C34.531 17.424 35.155 17.976 35.555 18.744C35.971 19.496 36.179 20.488 36.179 21.72C36.179 22.472 36.099 23.16 35.939 23.784C35.779 24.392 35.523 24.912 35.171 25.344C34.819 25.76 34.355 26.064 33.779 26.256L36.539 36H33.923L31.379 26.88H29.267V36H26.555ZM29.267 24.936H30.299C31.067 24.936 31.691 24.84 32.171 24.648C32.651 24.456 33.003 24.128 33.227 23.664C33.451 23.2 33.563 22.552 33.563 21.72C33.563 20.584 33.355 19.768 32.939 19.272C32.523 18.76 31.699 18.504 30.467 18.504H29.267V24.936Z" fill="#F6A200"/>
</svg>
