<svg width="51" height="50" viewBox="0 0 51 50" fill="none" xmlns="http://www.w3.org/2000/svg">
<circle cx="26" cy="25" r="25" fill="#D9D9D9"/>
<path d="M12.714 36L13.074 16.56H15.738L19.17 32.328L22.626 16.56H25.266L25.626 36H23.442L23.226 21.888L19.938 36H18.402L15.138 21.888L14.922 36H12.714ZM28.6058 36V16.56H32.8298C34.2698 16.56 35.4058 16.784 36.2378 17.232C37.0858 17.664 37.6858 18.32 38.0378 19.2C38.4058 20.08 38.5898 21.176 38.5898 22.488V29.64C38.5898 31.016 38.4058 32.176 38.0378 33.12C37.6858 34.064 37.1018 34.784 36.2858 35.28C35.4858 35.76 34.4058 36 33.0458 36H28.6058ZM31.3178 34.056H32.8538C33.8458 34.056 34.5498 33.864 34.9658 33.48C35.3818 33.096 35.6298 32.536 35.7098 31.8C35.8058 31.064 35.8538 30.176 35.8538 29.136V22.824C35.8538 21.816 35.7898 21 35.6618 20.376C35.5338 19.752 35.2538 19.296 34.8218 19.008C34.3898 18.72 33.7098 18.576 32.7818 18.576H31.3178V34.056Z" fill="#F6A200"/>
</svg>
