<svg width="51" height="50" viewBox="0 0 51 50" fill="none" xmlns="http://www.w3.org/2000/svg">
<circle cx="26" cy="25" r="25" fill="#D9D9D9"/>
<path d="M20.3645 36.216C18.9885 36.216 17.9165 35.928 17.1485 35.352C16.3965 34.776 15.8685 34 15.5645 33.024C15.2765 32.048 15.1325 30.96 15.1325 29.76V22.896C15.1325 21.584 15.2765 20.44 15.5645 19.464C15.8685 18.488 16.3965 17.736 17.1485 17.208C17.9165 16.664 18.9885 16.392 20.3645 16.392C21.5805 16.392 22.5405 16.616 23.2445 17.064C23.9645 17.512 24.4765 18.152 24.7805 18.984C25.1005 19.816 25.2605 20.816 25.2605 21.984V23.52H22.6925V22.152C22.6925 21.432 22.6525 20.8 22.5725 20.256C22.5085 19.696 22.3165 19.264 21.9965 18.96C21.6765 18.656 21.1405 18.504 20.3885 18.504C19.6205 18.504 19.0605 18.672 18.7085 19.008C18.3565 19.328 18.1245 19.792 18.0125 20.4C17.9165 20.992 17.8685 21.688 17.8685 22.488V30.192C17.8685 31.168 17.9485 31.944 18.1085 32.52C18.2685 33.08 18.5325 33.48 18.9005 33.72C19.2685 33.96 19.7645 34.08 20.3885 34.08C21.1245 34.08 21.6525 33.92 21.9725 33.6C22.2925 33.264 22.4925 32.808 22.5725 32.232C22.6525 31.656 22.6925 30.984 22.6925 30.216V28.776H25.2605V30.216C25.2605 31.4 25.1165 32.448 24.8285 33.36C24.5405 34.256 24.0445 34.96 23.3405 35.472C22.6365 35.968 21.6445 36.216 20.3645 36.216ZM27.7 36V16.56H30.268V23.568C30.732 23.12 31.252 22.736 31.828 22.416C32.404 22.096 33.044 21.936 33.748 21.936C34.292 21.936 34.708 22.08 34.996 22.368C35.3 22.656 35.508 23.016 35.62 23.448C35.748 23.88 35.812 24.32 35.812 24.768V36H33.244V25.512C33.244 25.016 33.172 24.632 33.028 24.36C32.884 24.088 32.588 23.952 32.14 23.952C31.836 23.952 31.516 24.04 31.18 24.216C30.86 24.392 30.556 24.608 30.268 24.864V36H27.7Z" fill="#F6A200"/>
</svg>
