<svg width="51" height="50" viewBox="0 0 51 50" fill="none" xmlns="http://www.w3.org/2000/svg">
<circle cx="26" cy="25" r="25" fill="#D9D9D9"/>
<path d="M20.719 36V16.56H25.183C26.063 16.56 26.823 16.656 27.463 16.848C28.119 17.04 28.663 17.336 29.095 17.736C29.527 18.136 29.847 18.648 30.055 19.272C30.263 19.88 30.367 20.6 30.367 21.432C30.367 22.232 30.263 22.928 30.055 23.52C29.863 24.096 29.559 24.552 29.143 24.888C28.743 25.224 28.223 25.44 27.583 25.536C28.367 25.712 28.999 26.016 29.479 26.448C29.959 26.864 30.311 27.408 30.535 28.08C30.775 28.736 30.895 29.528 30.895 30.456C30.895 31.288 30.799 32.048 30.607 32.736C30.415 33.424 30.111 34.008 29.695 34.488C29.295 34.968 28.775 35.344 28.135 35.616C27.511 35.872 26.767 36 25.903 36H20.719ZM23.431 34.056H25.255C26.471 34.056 27.279 33.776 27.679 33.216C28.095 32.64 28.303 31.72 28.303 30.456C28.303 29.64 28.191 28.96 27.967 28.416C27.759 27.856 27.415 27.44 26.935 27.168C26.471 26.88 25.839 26.736 25.039 26.736H23.431V34.056ZM23.431 24.672H25.039C25.807 24.672 26.407 24.568 26.839 24.36C27.271 24.136 27.575 23.784 27.751 23.304C27.927 22.824 28.015 22.2 28.015 21.432C28.015 20.536 27.879 19.888 27.607 19.488C27.335 19.088 26.911 18.84 26.335 18.744C25.759 18.632 25.007 18.576 24.079 18.576H23.431V24.672Z" fill="#F6A200"/>
</svg>
