<svg width="51" height="50" viewBox="0 0 51 50" fill="none" xmlns="http://www.w3.org/2000/svg">
<circle cx="26" cy="25" r="25" fill="#D9D9D9"/>
<path d="M7.52259 36L7.88259 16.56H10.5466L13.9786 32.328L17.4346 16.56H20.0746L20.4346 36H18.2506L18.0346 21.888L14.7466 36H13.2106L9.94659 21.888L9.73059 36H7.52259ZM28.2863 36.216C26.9103 36.216 25.8383 35.928 25.0703 35.352C24.3183 34.776 23.7903 34 23.4863 33.024C23.1983 32.048 23.0543 30.96 23.0543 29.76V22.896C23.0543 21.584 23.1983 20.44 23.4863 19.464C23.7903 18.488 24.3183 17.736 25.0703 17.208C25.8383 16.664 26.9103 16.392 28.2863 16.392C29.5023 16.392 30.4623 16.616 31.1663 17.064C31.8863 17.512 32.3983 18.152 32.7023 18.984C33.0223 19.816 33.1823 20.816 33.1823 21.984V23.52H30.6143V22.152C30.6143 21.432 30.5743 20.8 30.4943 20.256C30.4303 19.696 30.2383 19.264 29.9183 18.96C29.5983 18.656 29.0623 18.504 28.3103 18.504C27.5423 18.504 26.9823 18.672 26.6303 19.008C26.2783 19.328 26.0463 19.792 25.9343 20.4C25.8383 20.992 25.7903 21.688 25.7903 22.488V30.192C25.7903 31.168 25.8703 31.944 26.0303 32.52C26.1903 33.08 26.4543 33.48 26.8223 33.72C27.1903 33.96 27.6863 34.08 28.3103 34.08C29.0463 34.08 29.5743 33.92 29.8943 33.6C30.2143 33.264 30.4143 32.808 30.4943 32.232C30.5743 31.656 30.6143 30.984 30.6143 30.216V28.776H33.1823V30.216C33.1823 31.4 33.0383 32.448 32.7503 33.36C32.4623 34.256 31.9663 34.96 31.2623 35.472C30.5583 35.968 29.5663 36.216 28.2863 36.216ZM35.6219 36V16.56H38.1899V23.568C38.6539 23.12 39.1739 22.736 39.7499 22.416C40.3259 22.096 40.9659 21.936 41.6699 21.936C42.2139 21.936 42.6299 22.08 42.9179 22.368C43.2219 22.656 43.4299 23.016 43.5419 23.448C43.6699 23.88 43.7339 24.32 43.7339 24.768V36H41.1659V25.512C41.1659 25.016 41.0939 24.632 40.9499 24.36C40.8059 24.088 40.5099 23.952 40.0619 23.952C39.7579 23.952 39.4379 24.04 39.1019 24.216C38.7819 24.392 38.4779 24.608 38.1899 24.864V36H35.6219Z" fill="#F6A200"/>
</svg>
