<svg width="51" height="50" viewBox="0 0 51 50" fill="none" xmlns="http://www.w3.org/2000/svg">
<circle cx="26" cy="25" r="25" fill="#D9D9D9"/>
<path d="M19.7015 36.216C18.5815 36.216 17.6455 35.976 16.8935 35.496C16.1575 35.016 15.5975 34.352 15.2135 33.504C14.8295 32.656 14.6055 31.672 14.5415 30.552L16.9415 29.904C16.9895 30.592 17.0935 31.256 17.2535 31.896C17.4295 32.536 17.7095 33.064 18.0935 33.48C18.4775 33.88 19.0135 34.08 19.7015 34.08C20.4055 34.08 20.9335 33.888 21.2855 33.504C21.6535 33.104 21.8375 32.536 21.8375 31.8C21.8375 30.92 21.6375 30.216 21.2375 29.688C20.8375 29.144 20.3335 28.6 19.7255 28.056L16.4615 25.176C15.8215 24.616 15.3495 24.008 15.0455 23.352C14.7415 22.68 14.5895 21.856 14.5895 20.88C14.5895 19.456 14.9975 18.352 15.8135 17.568C16.6295 16.784 17.7415 16.392 19.1495 16.392C19.9175 16.392 20.5895 16.496 21.1655 16.704C21.7575 16.896 22.2455 17.2 22.6295 17.616C23.0295 18.032 23.3415 18.56 23.5655 19.2C23.8055 19.824 23.9655 20.56 24.0455 21.408L21.7415 22.032C21.6935 21.392 21.5975 20.808 21.4535 20.28C21.3095 19.736 21.0535 19.304 20.6855 18.984C20.3335 18.648 19.8215 18.48 19.1495 18.48C18.4775 18.48 17.9495 18.664 17.5655 19.032C17.1975 19.384 17.0135 19.912 17.0135 20.616C17.0135 21.208 17.1095 21.696 17.3015 22.08C17.5095 22.464 17.8375 22.856 18.2855 23.256L21.5735 26.136C22.3095 26.776 22.9575 27.544 23.5175 28.44C24.0775 29.32 24.3575 30.368 24.3575 31.584C24.3575 32.544 24.1575 33.376 23.7575 34.08C23.3575 34.768 22.8055 35.296 22.1015 35.664C21.4135 36.032 20.6135 36.216 19.7015 36.216ZM26.4612 36V16.56H30.3732C31.6692 16.56 32.7412 16.736 33.5892 17.088C34.4372 17.424 35.0612 17.976 35.4612 18.744C35.8772 19.496 36.0852 20.488 36.0852 21.72C36.0852 22.472 36.0052 23.16 35.8452 23.784C35.6852 24.392 35.4292 24.912 35.0772 25.344C34.7252 25.76 34.2612 26.064 33.6852 26.256L36.4452 36H33.8292L31.2852 26.88H29.1732V36H26.4612ZM29.1732 24.936H30.2052C30.9732 24.936 31.5972 24.84 32.0772 24.648C32.5572 24.456 32.9092 24.128 33.1332 23.664C33.3572 23.2 33.4692 22.552 33.4692 21.72C33.4692 20.584 33.2612 19.768 32.8452 19.272C32.4292 18.76 31.6052 18.504 30.3732 18.504H29.1732V24.936Z" fill="#F6A200"/>
</svg>
