<svg width="51" height="50" viewBox="0 0 51 50" fill="none" xmlns="http://www.w3.org/2000/svg">
<circle cx="26" cy="25" r="25" fill="#D9D9D9"/>
<path d="M20.6839 36V16.56H24.9079C26.3479 16.56 27.4839 16.784 28.3159 17.232C29.1639 17.664 29.7639 18.32 30.1159 19.2C30.4839 20.08 30.6679 21.176 30.6679 22.488V29.64C30.6679 31.016 30.4839 32.176 30.1159 33.12C29.7639 34.064 29.1799 34.784 28.3639 35.28C27.5639 35.76 26.4839 36 25.1239 36H20.6839ZM23.3959 34.056H24.9319C25.9239 34.056 26.6279 33.864 27.0439 33.48C27.4599 33.096 27.7079 32.536 27.7879 31.8C27.8839 31.064 27.9319 30.176 27.9319 29.136V22.824C27.9319 21.816 27.8679 21 27.7399 20.376C27.6119 19.752 27.3319 19.296 26.8999 19.008C26.4679 18.72 25.7879 18.576 24.8599 18.576H23.3959V34.056Z" fill="#F6A200"/>
</svg>
