<svg width="51" height="50" viewBox="0 0 51 50" fill="none" xmlns="http://www.w3.org/2000/svg">
<circle cx="26" cy="25" r="25" fill="#D9D9D9"/>
<path d="M13.3703 36L13.7303 16.56H16.3943L19.8263 32.328L23.2823 16.56H25.9223L26.2823 36H24.0983L23.8823 21.888L20.5943 36H19.0583L15.7943 21.888L15.5783 36H13.3703ZM33.846 36.216C32.726 36.216 31.79 35.976 31.038 35.496C30.302 35.016 29.742 34.352 29.358 33.504C28.974 32.656 28.75 31.672 28.686 30.552L31.086 29.904C31.134 30.592 31.238 31.256 31.398 31.896C31.574 32.536 31.854 33.064 32.238 33.48C32.622 33.88 33.158 34.08 33.846 34.08C34.55 34.08 35.078 33.888 35.43 33.504C35.798 33.104 35.982 32.536 35.982 31.8C35.982 30.92 35.782 30.216 35.382 29.688C34.982 29.144 34.478 28.6 33.87 28.056L30.606 25.176C29.966 24.616 29.494 24.008 29.19 23.352C28.886 22.68 28.734 21.856 28.734 20.88C28.734 19.456 29.142 18.352 29.958 17.568C30.774 16.784 31.886 16.392 33.294 16.392C34.062 16.392 34.734 16.496 35.31 16.704C35.902 16.896 36.39 17.2 36.774 17.616C37.174 18.032 37.486 18.56 37.71 19.2C37.95 19.824 38.11 20.56 38.19 21.408L35.886 22.032C35.838 21.392 35.742 20.808 35.598 20.28C35.454 19.736 35.198 19.304 34.83 18.984C34.478 18.648 33.966 18.48 33.294 18.48C32.622 18.48 32.094 18.664 31.71 19.032C31.342 19.384 31.158 19.912 31.158 20.616C31.158 21.208 31.254 21.696 31.446 22.08C31.654 22.464 31.982 22.856 32.43 23.256L35.718 26.136C36.454 26.776 37.102 27.544 37.662 28.44C38.222 29.32 38.502 30.368 38.502 31.584C38.502 32.544 38.302 33.376 37.902 34.08C37.502 34.768 36.95 35.296 36.246 35.664C35.558 36.032 34.758 36.216 33.846 36.216Z" fill="#F6A200"/>
</svg>
