<svg width="51" height="50" viewBox="0 0 51 50" fill="none" xmlns="http://www.w3.org/2000/svg">
<circle cx="26" cy="25" r="25" fill="#D9D9D9"/>
<path d="M25.9241 36.216C24.8041 36.216 23.8681 35.976 23.1161 35.496C22.3801 35.016 21.8201 34.352 21.4361 33.504C21.0521 32.656 20.8281 31.672 20.7641 30.552L23.1641 29.904C23.2121 30.592 23.3161 31.256 23.4761 31.896C23.6521 32.536 23.9321 33.064 24.3161 33.48C24.7001 33.88 25.2361 34.08 25.9241 34.08C26.6281 34.08 27.1561 33.888 27.5081 33.504C27.8761 33.104 28.0601 32.536 28.0601 31.8C28.0601 30.92 27.8601 30.216 27.4601 29.688C27.0601 29.144 26.5561 28.6 25.9481 28.056L22.6841 25.176C22.0441 24.616 21.5721 24.008 21.2681 23.352C20.9641 22.68 20.8121 21.856 20.8121 20.88C20.8121 19.456 21.2201 18.352 22.0361 17.568C22.8521 16.784 23.9641 16.392 25.3721 16.392C26.1401 16.392 26.8121 16.496 27.3881 16.704C27.9801 16.896 28.4681 17.2 28.8521 17.616C29.2521 18.032 29.5641 18.56 29.7881 19.2C30.0281 19.824 30.1881 20.56 30.2681 21.408L27.9641 22.032C27.9161 21.392 27.8201 20.808 27.6761 20.28C27.5321 19.736 27.2761 19.304 26.9081 18.984C26.5561 18.648 26.0441 18.48 25.3721 18.48C24.7001 18.48 24.1721 18.664 23.7881 19.032C23.4201 19.384 23.2361 19.912 23.2361 20.616C23.2361 21.208 23.3321 21.696 23.5241 22.08C23.7321 22.464 24.0601 22.856 24.5081 23.256L27.7961 26.136C28.5321 26.776 29.1801 27.544 29.7401 28.44C30.3001 29.32 30.5801 30.368 30.5801 31.584C30.5801 32.544 30.3801 33.376 29.9801 34.08C29.5801 34.768 29.0281 35.296 28.3241 35.664C27.6361 36.032 26.8361 36.216 25.9241 36.216Z" fill="#F6A200"/>
</svg>
