<svg width="51" height="50" viewBox="0 0 51 50" fill="none" xmlns="http://www.w3.org/2000/svg">
<circle cx="26" cy="25" r="25" fill="#D9D9D9"/>
<path d="M21.8528 36.216C20.4768 36.216 19.4048 35.928 18.6367 35.352C17.8848 34.776 17.3568 34 17.0527 33.024C16.7648 32.048 16.6208 30.96 16.6208 29.76V22.896C16.6208 21.584 16.7648 20.44 17.0527 19.464C17.3568 18.488 17.8848 17.736 18.6367 17.208C19.4048 16.664 20.4768 16.392 21.8528 16.392C23.0688 16.392 24.0288 16.616 24.7328 17.064C25.4528 17.512 25.9648 18.152 26.2688 18.984C26.5888 19.816 26.7488 20.816 26.7488 21.984V23.52H24.1808V22.152C24.1808 21.432 24.1408 20.8 24.0608 20.256C23.9968 19.696 23.8048 19.264 23.4848 18.96C23.1648 18.656 22.6288 18.504 21.8768 18.504C21.1088 18.504 20.5488 18.672 20.1968 19.008C19.8448 19.328 19.6128 19.792 19.5008 20.4C19.4048 20.992 19.3568 21.688 19.3568 22.488V30.192C19.3568 31.168 19.4368 31.944 19.5968 32.52C19.7568 33.08 20.0208 33.48 20.3888 33.72C20.7568 33.96 21.2528 34.08 21.8768 34.08C22.6128 34.08 23.1408 33.92 23.4608 33.6C23.7808 33.264 23.9808 32.808 24.0608 32.232C24.1408 31.656 24.1808 30.984 24.1808 30.216V28.776H26.7488V30.216C26.7488 31.4 26.6048 32.448 26.3168 33.36C26.0288 34.256 25.5328 34.96 24.8288 35.472C24.1248 35.968 23.1328 36.216 21.8528 36.216ZM29.1883 36V22.128H31.7563V24.096C32.2683 23.248 32.7803 22.68 33.2923 22.392C33.8043 22.104 34.3163 21.96 34.8283 21.96C34.8923 21.96 34.9483 21.96 34.9963 21.96C35.0603 21.96 35.1403 21.968 35.2363 21.984V24.816C35.0443 24.736 34.8203 24.672 34.5643 24.624C34.3243 24.56 34.0763 24.528 33.8203 24.528C33.4203 24.528 33.0523 24.624 32.7163 24.816C32.3963 24.992 32.0763 25.344 31.7563 25.872V36H29.1883Z" fill="#F6A200"/>
</svg>
