<?xml version="1.0" standalone="no"?>
<!DOCTYPE svg PUBLIC "-//W3C//DTD SVG 20010904//EN"
 "http://www.w3.org/TR/2001/REC-SVG-20010904/DTD/svg10.dtd">
<svg version="1.0" xmlns="http://www.w3.org/2000/svg"
 width="840.000000pt" height="840.000000pt" viewBox="0 0 840.000000 840.000000"
 preserveAspectRatio="xMidYMid meet">
<metadata>
Created by potrace 1.14, written by Peter Selinger 2001-2017
</metadata>
<g transform="translate(0.000000,840.000000) scale(0.100000,-0.100000)"
fill="#000000" stroke="none">
<path d="M2643 7825 c-178 -60 -266 -113 -506 -303 -198 -157 -249 -223 -283
-369 -31 -130 -4 -270 74 -393 30 -49 257 -290 272 -290 3 0 30 19 60 41 30
23 96 62 145 86 484 235 1063 -55 1170 -586 21 -101 16 -283 -9 -376 -31 -114
-131 -295 -189 -344 -10 -7 -17 -17 -17 -22 0 -8 1260 -1316 1285 -1333 9 -7
31 7 76 48 71 64 224 145 324 172 93 25 276 30 376 9 334 -67 594 -331 655
-665 46 -257 -30 -517 -209 -715 l-55 -61 133 -136 c117 -120 143 -141 211
-174 67 -32 89 -38 169 -42 106 -5 183 12 255 58 52 34 164 146 345 345 203
225 264 332 273 481 6 111 -9 140 -159 309 -283 319 -475 562 -629 795 -90
137 -104 174 -150 406 -23 115 -53 254 -66 309 -126 499 -352 905 -712 1277
-304 314 -661 582 -1004 754 -214 108 -416 178 -759 264 -132 33 -252 66 -267
74 -36 19 -95 65 -247 195 -149 128 -222 176 -304 201 -89 28 -140 25 -258
-15z m1477 -858 c160 -52 426 -185 595 -299 350 -234 705 -571 885 -842 117
-175 228 -421 291 -645 16 -57 29 -107 29 -110 0 -3 -33 57 -74 134 -345 661
-781 1173 -1281 1506 -135 91 -395 222 -530 269 -49 17 -92 33 -95 36 -9 10
51 -7 180 -49z"/>
<path d="M2660 6520 c-139 -22 -270 -90 -375 -195 -130 -130 -186 -259 -193
-445 -5 -137 11 -220 63 -325 116 -234 345 -377 605 -377 189 -1 341 62 476
196 90 91 130 153 170 271 24 69 28 96 28 200 1 138 -20 223 -81 335 -53 96
-188 226 -283 272 -129 63 -283 88 -410 68z m302 -273 c49 -24 136 -102 126
-113 -3 -2 -35 9 -74 25 -150 63 -336 57 -477 -16 -16 -8 -31 -13 -33 -10 -8
8 38 57 79 86 71 49 121 61 227 58 81 -2 105 -7 152 -30z"/>
<path d="M3363 4719 c-23 -4 -54 -14 -70 -23 -33 -17 -277 -244 -281 -261 -1
-6 193 -204 433 -440 426 -418 437 -428 454 -409 255 269 265 283 265 384 0
47 -6 76 -21 105 -12 23 -149 167 -315 331 -220 219 -302 294 -328 302 -57 17
-92 19 -137 11z"/>
<path d="M2043 3533 c-2064 -1942 -1999 -1880 -2022 -1932 -26 -62 -27 -132 0
-191 15 -34 115 -141 397 -423 210 -211 395 -388 417 -400 56 -30 164 -30 220
0 24 12 124 110 250 244 116 123 357 379 535 568 179 189 662 702 1073 1139
l748 796 -438 438 c-241 241 -443 438 -449 438 -6 0 -335 -305 -731 -677z"/>
<path d="M5095 4004 c-133 -32 -280 -130 -368 -245 -210 -274 -172 -670 86
-904 68 -62 205 -134 297 -156 77 -19 241 -16 320 5 402 109 613 560 436 933
-89 186 -254 322 -446 367 -81 19 -245 19 -325 0z m339 -245 c55 -20 167 -111
154 -124 -3 -3 -30 6 -61 20 -64 30 -173 55 -237 55 -63 0 -165 -24 -232 -53
-32 -14 -58 -23 -58 -19 0 16 87 91 128 112 91 45 202 48 306 9z"/>
<path d="M4992 2200 c-33 -31 -33 -85 0 -112 19 -17 58 -18 522 -17 275 1 494
3 486 5 -29 8 -944 144 -965 144 -12 0 -31 -9 -43 -20z"/>
<path d="M7770 2210 c-25 -4 -144 -22 -265 -40 -247 -35 -512 -75 -595 -88
-38 -7 105 -10 448 -11 l503 -1 24 25 c29 28 32 64 8 94 -22 25 -62 32 -123
21z"/>
<path d="M5387 1800 c-158 -50 -273 -186 -295 -348 l-9 -62 770 -2 770 -3 -79
-61 c-43 -34 -101 -75 -128 -93 l-50 -31 -914 0 -913 0 -25 -54 c-93 -204 -20
-434 176 -549 103 -60 16 -57 1750 -57 1291 0 1594 3 1635 14 204 54 339 242
322 445 -14 172 -133 321 -294 371 -50 15 -93 20 -187 20 l-122 0 -11 66 c-31
180 -167 321 -343 354 -33 6 -411 10 -1024 9 -920 0 -974 -1 -1029 -19z"/>
</g>
</svg>
