<?xml version="1.0" encoding="UTF-8"?>
<svg id="Layer_2" data-name="Layer 2" xmlns="http://www.w3.org/2000/svg" xmlns:xlink="http://www.w3.org/1999/xlink" viewBox="0 0 1437.22 547.38">
  <defs>
    <style>
      .cls-1 {
        clip-path: url(#clippath);
      }

      .cls-2 {
        fill: none;
      }

      .cls-2, .cls-3, .cls-4, .cls-5, .cls-6, .cls-7 {
        stroke-width: 0px;
      }

      .cls-3 {
        fill: #fef5e4;
      }

      .cls-4 {
        fill: url(#linear-gradient);
      }

      .cls-8 {
        clip-path: url(#clippath-1);
      }

      .cls-9 {
        mix-blend-mode: overlay;
      }

      .cls-5 {
        fill: url(#linear-gradient-4);
      }

      .cls-6 {
        fill: url(#linear-gradient-2);
      }

      .cls-7 {
        fill: url(#linear-gradient-3);
      }

      .cls-10 {
        isolation: isolate;
      }
    </style>
    <clipPath id="clippath">
      <rect class="cls-2" width="1437.22" height="547.38"/>
    </clipPath>
    <clipPath id="clippath-1">
      <rect class="cls-2" x="-2.01" y="-2.64" width="1441" height="553.43"/>
    </clipPath>
    <linearGradient id="linear-gradient" x1="718.49" y1="667.86" x2="718.49" y2="166.86" gradientTransform="translate(0 728.61) scale(1 -1)" gradientUnits="userSpaceOnUse">
      <stop offset="0" stop-color="#fbd180" stop-opacity=".21"/>
      <stop offset="1" stop-color="#f6a200"/>
    </linearGradient>
    <linearGradient id="linear-gradient-2" x1="731.74" y1="653.78" x2="731.74" y2="-72.64" gradientTransform="translate(0 728.61) scale(1 -1)" gradientUnits="userSpaceOnUse">
      <stop offset="0" stop-color="#999"/>
      <stop offset=".35" stop-color="#d9d9d9" stop-opacity="0"/>
    </linearGradient>
    <linearGradient id="linear-gradient-3" x1="750.49" y1="621.86" x2="750.49" y2="32.27" gradientTransform="translate(0 728.61) scale(1 -1)" gradientUnits="userSpaceOnUse">
      <stop offset="0" stop-color="#000"/>
      <stop offset="1" stop-color="#000" stop-opacity="0"/>
    </linearGradient>
    <linearGradient id="linear-gradient-4" x1="795.78" y1="676.46" x2="795.78" y2="-71.64" gradientTransform="translate(0 728.61) scale(1 -1)" gradientUnits="userSpaceOnUse">
      <stop offset="0" stop-color="#444"/>
      <stop offset="1" stop-color="#222" stop-opacity="0"/>
    </linearGradient>
  </defs>
  <g id="Layer_2-2" data-name="Layer 2">
    <g id="Layer_1-2" data-name="Layer 1-2">
      <g class="cls-1">
        <g class="cls-8">
          <g class="cls-10">
            <g id="Layer_1-3" data-name="Layer 1-3">
              <g>
                <rect class="cls-3" x="-1.51" y="-286.25" width="1440" height="1024"/>
                <g>
                  <rect class="cls-4" x="-1.51" y="-286.25" width="1440" height="1024"/>
                  <g class="cls-9">
                    <path class="cls-6" d="M367.99,77.25C129.19,56.45,9.49,174.92-20.51,236.75l-15.5,564.5h1535.5v-403c-36,17.5-146-108.5-468-156.5-215.5-40-424.7-143.7-663.5-164.5h0Z"/>
                  </g>
                  <g class="cls-9">
                    <path class="cls-7" d="M216.99,173.34C50.59,166.14-7.01,209.01-15.01,231.34l-15.5,465h1531l31-431c-27.17-51.5-140.4-155.3-376-158.5-294.5-4-370,124.5-542,119s-188.5-43.5-396.5-52.5h0Z"/>
                  </g>
                  <g class="cls-9">
                    <path class="cls-5" d="M279.99,229.75C67.59,231.75-4.51,283.58-14.01,309.25v465.5l1495,25.5,124.5-712.5c2-15.33-30.7-43.5-177.5-33.5-183.5,12.5-245.5,233.5-571,234.5s-311.5-61.5-577-59h0Z"/>
                  </g>
                </g>
              </g>
            </g>
          </g>
        </g>
      </g>
    </g>
  </g>
</svg>