<?xml version="1.0" encoding="utf-8"?>
<!-- Generator: Adobe Illustrator 27.9.0, SVG Export Plug-In . SVG Version: 6.00 Build 0)  -->
<svg version="1.1" id="Layer_1" xmlns="http://www.w3.org/2000/svg" xmlns:xlink="http://www.w3.org/1999/xlink" x="0px" y="0px"
	 viewBox="0 0 386.4 136.99" style="enable-background:new 0 0 386.4 136.99;" xml:space="preserve">
<style type="text/css">
	.st0{fill:#020203;}
	.st1{fill:#FFFFFF;}
	.st2{fill:#F6A200;}
</style>
<g>
	<path d="M307.53,74.71c0.18,0.41-0.06,0.83-0.53,1.06c-3.42,2.12-8.01,3.42-12.37,3.42c-12.13,0-20.26-8.48-20.26-21.2
		s8.13-21.2,20.26-21.2c4.36,0,8.95,1.3,12.37,3.42c0.47,0.24,0.71,0.65,0.53,1.06l-3.89,8.19c-0.24,0.53-0.65,0.71-1.12,0.47
		c-2.18-1.24-4.3-1.65-6.83-1.65c-5.3,0-8.83,3.89-8.83,9.72s3.53,9.72,8.83,9.72c2.53,0,4.65-0.41,6.83-1.65
		c0.47-0.24,0.88-0.06,1.12,0.47L307.53,74.71z"/>
	<path d="M312.94,49.56c-0.18-0.41-0.06-0.82,0.29-1.12c3.36-2.12,8.07-3.36,12.78-3.36c10.19,0,14.9,5.36,14.9,17.08v15.26
		c0,0.47-0.41,0.88-0.88,0.88h-7.42c-0.47,0-0.94-0.41-0.94-0.88l-0.41-1.59c-1.94,2.06-5.83,3.36-10.13,3.36
		c-6.77,0-11.25-4.36-11.19-10.84c0.06-5.77,4.54-9.6,11.19-9.6c3.42,0,6.48,1.24,7.66,3.12V59.4c0-2.53-1.83-4.18-4.54-4.18
		c-2.3,0-5.12,0.77-7.07,1.88c-0.29,0.18-0.65-0.06-0.88-0.47L312.94,49.56z M328.78,67.7c-1-1-2-1.47-3.24-1.47
		c-1.47,0-2.47,0.82-2.47,2.12c0,1.3,1,2.12,2.47,2.12c1.24,0,2.24-0.47,3.24-1.47V67.7z"/>
	<path d="M363.82,45.91c0.47,0,0.82,0.35,0.82,0.82v7.66c0,0.47-0.35,0.82-0.82,0.82h-1.53c-2.24,0-4.24,1-5.01,2.47v19.73
		c0,0.47-0.41,0.88-0.88,0.88h-10.37c-0.47,0-0.88-0.41-0.88-0.88V46.8c0-0.41,0.41-0.82,0.88-0.82h6.66c0.47,0,0.77,0.41,0.94,0.88
		l0.88,2.59c1.77-2.18,4.65-3.53,7.77-3.53H363.82z"/>
</g>
<g>
	<defs>
		<circle id="SVGID_1_" cx="78.16" cy="67.68" r="44.42"/>
	</defs>
	<use xlink:href="#SVGID_1_"  style="overflow:visible;fill:#F6A200;"/>
	<clipPath id="SVGID_00000139257682868131188040000010440377511531692435_">
		<use xlink:href="#SVGID_1_"  style="overflow:visible;"/>
	</clipPath>
</g>
<g>
	<g>
		<path class="st0" d="M108.96,85.39c0,0,0.28-0.26,0.75-0.8c0.46-0.54,1.15-1.35,1.76-2.57c0.3-0.61,0.58-1.33,0.65-2.2
			c0.03-0.43-0.01-0.9-0.16-1.36c-0.15-0.46-0.42-0.9-0.77-1.27c-1.27-1.35-2.61-2.88-4.05-4.62c-1.42-1.74-2.95-3.66-4.41-5.75
			c-0.69-1.07-1.49-2.12-1.86-3.29c-0.06-0.3-0.14-0.54-0.2-0.88c-0.07-0.33-0.13-0.66-0.2-1c-0.13-0.69-0.26-1.38-0.39-2.07
			c-0.56-2.81-1.37-5.73-2.63-8.53c-1.26-2.79-2.94-5.47-4.94-7.86c-0.46-0.54-0.94-1.06-1.41-1.58c-0.25-0.28-0.68-0.73-0.96-1
			l-0.84-0.81l-0.87-0.83l-0.85-0.73l-0.85-0.73l-0.42-0.36l-0.46-0.36c-2.41-1.96-4.91-3.6-7.54-4.95
			c-2.62-1.33-5.32-2.28-7.9-2.94c-1.26-0.31-2.48-0.61-3.66-0.9c-0.26-0.08-0.54-0.14-0.79-0.22l-0.35-0.12l-0.17-0.06l-0.12-0.07
			c-0.07-0.04-0.2-0.1-0.23-0.1l-0.36-0.25c-0.24-0.17-0.39-0.3-0.6-0.46c-0.81-0.68-1.6-1.42-2.41-2.12
			c-0.81-0.69-1.64-1.36-2.61-1.82c-0.24-0.12-0.5-0.21-0.75-0.29c-0.27-0.06-0.52-0.15-0.79-0.16c-0.27-0.03-0.53-0.05-0.8-0.01
			c-0.14,0.02-0.23,0.01-0.41,0.05c-0.1,0.03-0.2,0.05-0.29,0.08c-0.74,0.18-1.54,0.49-2.15,0.76c-1.25,0.55-1.9,1-2.51,1.38
			c-0.61,0.38-2.3,1.75-2.3,1.75l1.29-0.77c0,0,0.34-0.15,1.01-0.39c0.66-0.24,1.63-0.6,2.88-0.92c0.63-0.16,1.24-0.29,2.06-0.37
			l0.3-0.04l0.2,0.01c0.15-0.01,0.3,0.03,0.46,0.07c0.15,0.02,0.31,0.12,0.47,0.17c0.16,0.09,0.32,0.17,0.48,0.28
			c0.64,0.43,1.31,1.05,1.98,1.78c0.68,0.73,1.38,1.57,2.24,2.41c0.22,0.21,0.49,0.46,0.71,0.65l0.33,0.28l0.05,0.04l0.03,0.02
			l0.06,0.04l0.13,0.08l0.25,0.16L64.31,30l0.24,0.11l0.48,0.22c0.32,0.13,0.62,0.23,0.93,0.35c1.17,0.36,2.38,0.73,3.62,1.12
			c2.4,0.79,4.85,1.71,7.28,2.95c2.42,1.21,4.89,2.68,7.19,4.34l0.44,0.31l0.44,0.34l0.89,0.68l0.89,0.69l0.79,0.7l0.82,0.72
			c0.27,0.24,0.7,0.65,0.95,0.91c0.46,0.47,0.92,0.93,1.37,1.4c1.95,2.16,3.6,4.58,4.89,7.15c1.28,2.58,2.15,5.29,2.8,8
			c0.16,0.69,0.31,1.37,0.47,2.04c0.08,0.34,0.16,0.69,0.24,1.03c0.07,0.33,0.21,0.74,0.32,1.1c0.06,0.17,0.13,0.32,0.19,0.48
			l0.05,0.12l0.02,0.06l0.01,0.03c0,0,0.06,0.13,0.04,0.09l0.14,0.23c0.19,0.3,0.37,0.61,0.56,0.91c0.38,0.58,0.79,1.1,1.18,1.64
			c1.61,2.08,3.24,3.92,4.76,5.61c1.53,1.67,3,3.19,4.31,4.46c0.6,0.56,0.85,1.32,0.83,2.04c-0.01,0.73-0.23,1.41-0.47,2
			c-0.51,1.18-1.13,2.01-1.55,2.56c-0.43,0.55-0.69,0.82-0.69,0.82L108.96,85.39z"/>
	</g>
	<path class="st0" d="M53.89,21.67"/>
	<circle class="st0" cx="56.71" cy="47.39" r="8.41"/>
	<path class="st0" d="M110.59,76.71l-0.92-1.16c-0.12-0.15-0.24-0.29-0.37-0.42l-8.07-8.26l-2.96-8.1l-2.83-10.28l-5.49-5.49
		l-9.93-8.13l-10.8-4.37l-4.49-3.29l-6.37-4.69l-7.21,2.49l-2.06,1.36l-0.99,0.8c-3.36,2.17-3.9,6.86-1.12,9.74l2.7,2.8
		c4.09-3.72,10.43-3.62,14.38,0.34c4.04,4.04,4.07,10.56,0.1,14.64l16.16,16.72c0.06-0.06,0.11-0.12,0.17-0.18
		c4.07-4.07,10.68-4.07,14.75,0c4.07,4.07,4.07,10.68,0,14.75c-0.14,0.14-0.3,0.27-0.45,0.4l2.66,2.76c2.1,2.17,5.72,2.34,7.85,0.2
		l2.27-2.39l1.36-1.52l1.7-2.28c0.53-0.71,0.88-1.55,1-2.44C111.86,79.26,111.47,77.83,110.59,76.71z"/>
	<circle class="st0" cx="87.89" cy="78.57" r="8.34"/>
	<path class="st1" d="M70.77,32.7c0,0,8.6,0.88,18.82,11.75c3.67,3.9,5.63,8.64,6.63,13.11C96.22,57.56,87.8,37.52,70.77,32.7z"/>
	<path class="st1" d="M53.34,44.02c1.5-2.73,6.07-2.73,7.57,0C58.39,42.6,55.85,42.6,53.34,44.02L53.34,44.02z"/>
	<path class="st1" d="M84.52,75.2c1.5-2.73,6.07-2.73,7.57,0C89.57,73.78,87.03,73.78,84.52,75.2L84.52,75.2z"/>
</g>
<path d="M121.78,103.06H83.42c-2.94,0-5.32,2.38-5.32,5.32v0c0,2.94,2.38,5.32,5.32,5.32h38.35c2.94,0,5.32-2.38,5.32-5.32v0
	C127.09,105.44,124.71,103.06,121.78,103.06z"/>
<path d="M114.14,97.74H91.06c-2.94,0-5.32,2.38-5.32,5.32v0c0,2.94,2.38,5.32,5.32,5.32h23.08c2.94,0,5.32-2.38,5.32-5.32v0
	C119.46,100.12,117.08,97.74,114.14,97.74z"/>
<path class="st2" d="M101.56,105.51c-10.21,0-44.06,0-44.06,0v-2.45h47.54C105.04,103.06,102.53,105.18,101.56,105.51z"/>
<g>
	<path d="M70.65,75.87l2.71-2.88c1.15-1.2,1.12-3.1-0.05-4.27l-6.35-6.35c-1.17-1.17-3.07-1.2-4.27-0.05l-2.94,2.76L70.65,75.87z"/>
	<path d="M56.83,67.82L23.16,99.45c-1.24,1.18-1.26,3.16-0.05,4.37l8.74,8.74c1.21,1.21,3.18,1.19,4.37-0.05l31.68-33.72
		L56.83,67.82z"/>
</g>
<path class="st0" d="M107.6,94.61h12.43c0.51,0,0.93-0.42,0.93-0.93v0c0-0.57-0.5-1-1.07-0.92L107.6,94.61z"/>
<path class="st0" d="M97.6,94.61H85.16c-0.51,0-0.93-0.42-0.93-0.93v0c0-0.57,0.5-1,1.07-0.92L97.6,94.61z"/>
<g>
	<path d="M165.29,74.71c0.18,0.41-0.06,0.83-0.53,1.06c-3.42,2.12-8.01,3.42-12.37,3.42c-12.13,0-20.26-8.48-20.26-21.2
		s8.13-21.2,20.26-21.2c4.36,0,8.95,1.3,12.37,3.42c0.47,0.24,0.71,0.65,0.53,1.06l-3.89,8.19c-0.24,0.53-0.65,0.71-1.12,0.47
		c-2.18-1.24-4.3-1.65-6.83-1.65c-5.3,0-8.83,3.89-8.83,9.72s3.53,9.72,8.83,9.72c2.53,0,4.65-0.41,6.83-1.65
		c0.47-0.24,0.88-0.06,1.12,0.47L165.29,74.71z"/>
	<path d="M179.89,35.6c0.47,0,0.88,0.41,0.88,0.82v40.99c0,0.47-0.41,0.88-0.88,0.88h-10.37c-0.47,0-0.88-0.41-0.88-0.88V36.43
		c0-0.41,0.41-0.82,0.88-0.82H179.89z"/>
	<path d="M197.62,39.02c0,3.48-2.59,5.83-6.48,5.83c-3.89,0-6.48-2.36-6.48-5.83c0-3.65,2.59-6.07,6.48-6.07
		C195.03,32.95,197.62,35.37,197.62,39.02z M196.38,45.91c0.47,0,0.88,0.41,0.88,0.82v30.69c0,0.47-0.41,0.88-0.88,0.88h-10.37
		c-0.47,0-0.88-0.41-0.88-0.88V46.74c0-0.41,0.41-0.82,0.88-0.82H196.38z"/>
	<path d="M229.54,74.89c0.18,0.29,0,0.71-0.35,1c-3.18,2-7.54,3.36-10.9,3.36c-10.66,0-17.73-6.83-17.73-17.08
		s7.07-17.08,17.73-17.08c3.36,0,7.72,1.35,10.9,3.36c0.35,0.29,0.53,0.71,0.35,1l-3.42,7.19c-0.24,0.47-0.65,0.65-1.06,0.35
		c-1.47-1.06-3.71-1.77-5.65-1.77c-4.3,0-7.13,2.77-7.13,6.95c0,4.18,2.83,6.95,7.13,6.95c1.94,0,4.18-0.71,5.65-1.77
		c0.41-0.29,0.82-0.12,1.06,0.35L229.54,74.89z"/>
	<path d="M244.14,35.6c0.47,0,0.88,0.41,0.88,0.82v19.55l5.48-9.36c0.24-0.41,0.82-0.71,1.35-0.71h11.78c0.47,0,0.65,0.29,0.41,0.71
		l-8.72,14.43L266,77.6c0.29,0.41,0.06,0.71-0.41,0.71h-12.55c-0.41,0-1-0.29-1.24-0.71l-6.77-11.66v11.49
		c0,0.47-0.41,0.88-0.88,0.88h-10.37c-0.47,0-0.88-0.41-0.88-0.88V36.43c0-0.41,0.41-0.82,0.88-0.82H244.14z"/>
</g>
<g>
	<path class="st2" d="M241.69,111.45c0.13,0.25-0.04,0.54-0.38,0.54h-8.28c-0.38,0-0.71-0.21-0.88-0.54l-1.25-4.39h-7.87l-1.25,4.39
		c-0.17,0.33-0.5,0.54-0.88,0.54h-8.28c-0.33,0-0.5-0.29-0.38-0.54l9.46-27.78c0.13-0.25,0.59-0.54,1-0.54h8.54
		c0.42,0,0.88,0.29,1,0.54L241.69,111.45z M226.96,93.12l-2.26,7.95h4.52L226.96,93.12z"/>
	<path class="st2" d="M262.82,88.98c0.33,0,0.63,0.29,0.63,0.63v21.8c0,0.29-0.29,0.59-0.63,0.59h-4.73c-0.33,0-0.54-0.29-0.67-0.63
		l-0.63-1.51c-1.51,1.67-3.97,2.76-6.69,2.76c-5.44,0-8.66-3.47-8.66-9.16V89.61c0-0.33,0.29-0.63,0.63-0.63h7.36
		c0.33,0,0.63,0.29,0.63,0.63v12.8c0,1.42,0.88,2.38,2.22,2.38c1.63,0,2.55-1.34,2.55-1.34V89.61c0-0.33,0.29-0.63,0.63-0.63H262.82
		z"/>
	<path class="st2" d="M286.38,109.56c0.13,0.21,0,0.5-0.25,0.71c-2.26,1.42-5.36,2.39-7.74,2.39c-7.57,0-12.59-4.85-12.59-12.13
		s5.02-12.13,12.59-12.13c2.38,0,5.48,0.96,7.74,2.38c0.25,0.21,0.38,0.5,0.25,0.71l-2.43,5.1c-0.17,0.33-0.46,0.46-0.75,0.25
		c-1.05-0.75-2.64-1.26-4.02-1.26c-3.05,0-5.06,1.97-5.06,4.94s2.01,4.94,5.06,4.94c1.38,0,2.97-0.5,4.02-1.25
		c0.29-0.21,0.59-0.08,0.75,0.25L286.38,109.56z"/>
	<path class="st2" d="M302.41,88.98c0.38,0,0.63,0.25,0.63,0.59l-0.46,4.06c-0.04,0.33-0.29,0.63-0.63,0.63h-2.68v17.11
		c0,0.33-0.29,0.63-0.63,0.63h-7.36c-0.33,0-0.63-0.29-0.63-0.63V94.25h-2.38c-0.29,0-0.59-0.25-0.59-0.59v-4.06
		c0-0.38,0.29-0.63,0.59-0.63h2.38v-4.56c0-0.29,0.29-0.54,0.63-0.59l7.36-0.71c0.33-0.04,0.63,0.29,0.63,0.59v5.27H302.41z"/>
	<path class="st2" d="M313.92,84.08c0,2.47-1.84,4.14-4.6,4.14s-4.6-1.67-4.6-4.14c0-2.59,1.84-4.31,4.6-4.31
		S313.92,81.49,313.92,84.08z M313.04,88.98c0.33,0,0.63,0.29,0.63,0.59v21.8c0,0.33-0.29,0.63-0.63,0.63h-7.36
		c-0.33,0-0.63-0.29-0.63-0.63v-21.8c0-0.29,0.29-0.59,0.63-0.59H313.04z"/>
	<path class="st2" d="M340.61,100.48c0,7.28-4.94,12.13-12.3,12.13c-7.36,0-12.3-4.85-12.3-12.09c0-7.28,4.94-12.13,12.3-12.13
		C335.68,88.39,340.61,93.24,340.61,100.48z M324.17,100.53c0,2.72,1.67,4.56,4.14,4.56s4.14-1.84,4.14-4.6
		c0-2.72-1.67-4.56-4.14-4.56S324.17,97.76,324.17,100.53z"/>
	<path class="st2" d="M349.44,90.73c1.34-1.46,4.18-2.34,6.74-2.34c5.69,0,8.79,2.64,8.79,9.16v13.81c0,0.33-0.29,0.63-0.63,0.63
		h-7.36c-0.33,0-0.63-0.29-0.59-0.63V98.85c0-1.67-0.75-2.64-2.05-2.64c-2.38,0-2.76,2.34-2.76,2.34v12.8
		c0,0.33-0.29,0.63-0.63,0.63h-7.36c-0.33,0-0.63-0.29-0.63-0.63v-21.8c0-0.38,0.21-0.59,0.59-0.59h4.69c0.29,0,0.54,0.12,0.67,0.42
		L349.44,90.73z"/>
</g>
</svg>
