<?xml version="1.0" encoding="UTF-8"?>
<svg id="Layer_2" data-name="Layer 2" xmlns="http://www.w3.org/2000/svg" viewBox="0 0 104.87 91.39">
  <defs>
    <style>
      .cls-1 {
        fill: #c4c4c4;
      }

      .cls-2 {
        fill: #9b9a9a;
        stroke-width: 0px;
      }
    </style>
  </defs>
  <g id="Layer_1-2" data-name="Layer 1">
    <circle class="cls-1" cx="55.94" cy="45.37" r="44.42"/>
    <g>
      <path class="cls-2" d="M86.75,63.08s.28-.26.75-.8c.46-.54,1.15-1.35,1.76-2.57.3-.61.58-1.33.65-2.2.03-.43-.01-.9-.16-1.36-.15-.46-.42-.9-.77-1.27-1.27-1.35-2.61-2.88-4.05-4.62-1.42-1.74-2.95-3.66-4.41-5.75-.69-1.07-1.49-2.12-1.86-3.29-.06-.3-.14-.54-.2-.88-.07-.33-.13-.66-.2-1-.13-.69-.26-1.38-.39-2.07-.56-2.81-1.37-5.73-2.63-8.53-1.26-2.79-2.94-5.47-4.94-7.86-.46-.54-.94-1.06-1.41-1.58-.25-.28-.68-.73-.96-1l-.84-.81-.87-.83-.85-.73-.85-.73-.42-.36-.46-.36c-2.41-1.96-4.91-3.6-7.54-4.95-2.62-1.33-5.32-2.28-7.9-2.94-1.26-.31-2.48-.61-3.66-.9-.26-.08-.54-.14-.79-.22l-.35-.12-.17-.06-.12-.07c-.07-.04-.2-.1-.23-.1l-.36-.25c-.24-.17-.39-.3-.6-.46-.81-.68-1.6-1.42-2.41-2.12-.81-.69-1.64-1.36-2.61-1.82-.24-.12-.5-.21-.75-.29-.27-.06-.52-.15-.79-.16-.27-.03-.53-.05-.8,0-.14.02-.23.01-.41.05-.1.03-.2.05-.29.08-.74.18-1.54.49-2.15.76-1.25.55-1.9,1-2.51,1.38-.61.38-2.3,1.75-2.3,1.75l1.29-.77s.34-.15,1.01-.39c.66-.24,1.63-.6,2.88-.92.63-.16,1.24-.29,2.06-.37l.3-.04h.2c.15,0,.3.05.46.08.15.02.31.12.47.17.16.09.32.17.48.28.64.43,1.31,1.05,1.98,1.78.68.73,1.38,1.57,2.24,2.41.22.21.49.46.71.65l.33.28.05.04.03.02.06.04.13.08.25.16.26.16.24.11.48.22c.32.13.62.23.93.35,1.17.36,2.38.73,3.62,1.12,2.4.79,4.85,1.71,7.28,2.95,2.42,1.21,4.89,2.68,7.19,4.34l.44.31.44.34.89.68.89.69.79.7.82.72c.27.24.7.65.95.91.46.47.92.93,1.37,1.4,1.95,2.16,3.6,4.58,4.89,7.15,1.28,2.58,2.15,5.29,2.8,8,.16.69.31,1.37.47,2.04.08.34.16.69.24,1.03.07.33.21.74.32,1.1.06.17.13.32.19.48l.05.12.02.06v.03s.07.13.05.09l.14.23c.19.3.37.61.56.91.38.58.79,1.1,1.18,1.64,1.61,2.08,3.24,3.92,4.76,5.61,1.53,1.67,3,3.19,4.31,4.46.6.56.85,1.32.83,2.04-.01.73-.23,1.41-.47,2-.51,1.18-1.13,2.01-1.55,2.56-.43.55-.69.82-.69.82l.22.22Z"/>
      <circle class="cls-2" cx="34.49" cy="25.08" r="8.41"/>
      <path class="cls-2" d="M88.37,54.41l-.92-1.16c-.12-.15-.24-.29-.37-.42l-8.07-8.26-2.96-8.1-2.83-10.28-5.49-5.49-9.93-8.13-10.8-4.37-4.49-3.29L36.15.19l-7.21,2.49-2.06,1.36-.99.8c-3.36,2.17-3.9,6.86-1.12,9.74l2.7,2.8c4.09-3.72,10.43-3.62,14.38.34s4.07,10.56.1,14.64l16.16,16.72c.06-.06.11-.12.17-.18,4.07-4.07,10.68-4.07,14.75,0,4.07,4.07,4.07,10.68,0,14.75-.14.14-.3.27-.45.4l2.66,2.76c2.1,2.17,5.72,2.34,7.85.2l2.27-2.39,1.36-1.52,1.7-2.28c.53-.71.88-1.55,1-2.44.19-1.41-.2-2.84-1.08-3.96Z"/>
      <circle class="cls-2" cx="65.67" cy="56.26" r="8.34"/>
      <path class="cls-2" d="M48.55,10.39s8.6.88,18.82,11.75c3.67,3.9,5.63,8.64,6.63,13.11,0,0-8.42-20.04-25.45-24.86Z"/>
      <path class="cls-2" d="M31.12,21.71c1.5-2.73,6.07-2.73,7.57,0-2.52-1.42-5.05-1.42-7.57,0h0Z"/>
      <path class="cls-2" d="M62.3,52.89c1.5-2.73,6.07-2.73,7.57,0-2.52-1.42-5.05-1.42-7.57,0h0Z"/>
    </g>
    <rect class="cls-2" x="55.88" y="80.75" width="48.99" height="10.64" rx="5.32" ry="5.32"/>
    <rect class="cls-2" x="63.52" y="75.43" width="33.72" height="10.64" rx="5.32" ry="5.32"/>
    <path class="cls-2" d="M79.34,83.2h-44.06v-2.45h47.54s-2.51,2.13-3.48,2.45Z"/>
    <g>
      <path class="cls-2" d="M48.43,53.56l2.71-2.88c1.15-1.2,1.12-3.1-.05-4.27l-6.35-6.35c-1.17-1.17-3.07-1.2-4.27-.05l-2.94,2.76,10.9,10.79Z"/>
      <path class="cls-2" d="M34.61,45.52L.94,77.14c-1.24,1.18-1.26,3.16-.05,4.37l8.74,8.74c1.21,1.21,3.18,1.19,4.37-.05l31.68-33.72-11.08-10.96Z"/>
    </g>
    <path class="cls-2" d="M85.38,72.3h12.43c.51,0,.93-.42.93-.93h0c0-.57-.5-1-1.07-.92l-12.3,1.84Z"/>
    <path class="cls-2" d="M75.38,72.3h-12.43c-.51,0-.93-.42-.93-.93h0c0-.57.5-1,1.07-.92l12.3,1.84Z"/>
  </g>
</svg>